Coordinates
version=1
nRows=16
nColumns=38
inDegrees=no

Units are S.I. units (second, meters, Newtons, ...)
If the header above contains a line with 'inDegrees', this indicates whether rotational values are in degrees (yes) or radians (no).

endheader
time	pelvis_tilt	pelvis_list	pelvis_rotation	pelvis_tx	pelvis_ty	pelvis_tz	hip_flexion_r	hip_adduction_r	hip_rotation_r	knee_angle_r	ankle_angle_r	subtalar_angle_r	mtp_angle_r	hip_flexion_l	hip_adduction_l	hip_rotation_l	knee_angle_l	ankle_angle_l	subtalar_angle_l	mtp_angle_l	lumbar_extension	lumbar_bending	lumbar_rotation	arm_flex_r	arm_add_r	arm_rot_r	elbow_flex_r	pro_sup_r	wrist_flex_r	wrist_dev_r	arm_flex_l	arm_add_l	arm_rot_l	elbow_flex_l	pro_sup_l	wrist_flex_l	wrist_dev_l
2.6775	0.0331549	-0.0425908	-3.08974	-0.176526	0.989929	-0.00256775	-0.000464286	-0.0721859	-0.369611	0.0779406	0.0755968	0	0	0.0263325	0.00512591	0.105225	0.0918531	0.0454741	0	0	-0.147202	-0.0752199	0.143079	-1.56689	-0.837007	-1.58366	0.870637	0.657623	0	0	1.31594	-1.44205	0.622675	0.0502111	1.53319	0	0
2.6875	0.0331623	-0.042536	-3.08953	-0.176383	0.98995	-0.0025576	-0.000296435	-0.0722047	-0.369859	0.0780434	0.0755359	0	0	0.0266756	0.00510507	0.105354	0.0921762	0.0454739	0	0	-0.147435	-0.0752788	0.143265	-1.5669	-0.836556	-1.58543	0.870582	0.660187	0	0	1.31682	-1.44205	0.625486	0.0502309	1.53306	0	0
2.69749	0.033149	-0.0424841	-3.08931	-0.176242	0.989972	-0.00254837	-0.00014381	-0.0722291	-0.370116	0.078164	0.0754829	0	0	0.0270013	0.00508647	0.105487	0.0924996	0.0454726	0	0	-0.147671	-0.0753596	0.143429	-1.5669	-0.836136	-1.58676	0.870541	0.662464	0	0	1.31769	-1.44202	0.627891	0.0502504	1.53294	0	0
2.70748	0.0331036	-0.0424321	-3.08907	-0.176104	0.989997	-0.00254205	-1.1769e-05	-0.0722533	-0.370377	0.0783104	0.0754394	0	0	0.0272965	0.0050638	0.105617	0.0928169	0.045472	0	0	-0.147917	-0.0754687	0.143575	-1.5669	-0.835762	-1.5875	0.870532	0.664426	0	0	1.31857	-1.44192	0.62984	0.0502696	1.53281	0	0
2.71747	0.0330177	-0.0423789	-3.08882	-0.175969	0.990024	-0.00253979	9.40436e-05	-0.072274	-0.370635	0.0784844	0.075406	0	0	0.0275484	0.00503425	0.10574	0.0931182	0.0454716	0	0	-0.148183	-0.0756091	0.14371	-1.56691	-0.835441	-1.58754	0.870562	0.666014	0	0	1.31945	-1.44176	0.631299	0.0502886	1.53268	0	0
2.72746	0.0328874	-0.0423243	-3.08857	-0.175836	0.990055	-0.00254236	0.000170078	-0.072289	-0.370885	0.0786851	0.0753823	0	0	0.0277479	0.0049961	0.105854	0.0933945	0.0454703	0	0	-0.148473	-0.0757819	0.143841	-1.56691	-0.835174	-1.58686	0.870639	0.667165	0	0	1.32032	-1.44151	0.632252	0.0503072	1.53256	0	0
2.73745	0.032714	-0.0422679	-3.08832	-0.175706	0.99009	-0.00255017	0.000216281	-0.0722965	-0.371123	0.0789089	0.0753671	0	0	0.0278917	0.00494849	0.105958	0.0936387	0.0454676	0	0	-0.148787	-0.0759865	0.143975	-1.56691	-0.834956	-1.58546	0.870766	0.667825	0	0	1.3212	-1.44119	0.632702	0.0503255	1.53243	0	0
2.74744	0.0325044	-0.0422105	-3.08807	-0.17558	0.990127	-0.00256313	0.000236608	-0.0722958	-0.371346	0.07915	0.0753596	0	0	0.0279828	0.0048918	0.106051	0.0938468	0.0454626	0	0	-0.149119	-0.0762201	0.144118	-1.56692	-0.834778	-1.58338	0.870939	0.667952	0	0	1.32207	-1.4408	0.632668	0.0503436	1.5323	0	0
2.75743	0.032271	-0.0421542	-3.08784	-0.175457	0.990166	-0.00258022	0.000238243	-0.0722892	-0.371552	0.0793988	0.0753579	0	0	0.0280306	0.00482979	0.106133	0.0940171	0.0454536	0	0	-0.149459	-0.0764768	0.144276	-1.56692	-0.834622	-1.58075	0.871147	0.667526	0	0	1.32295	-1.44035	0.632213	0.0503613	1.53218	0	0
2.76742	0.0320304	-0.0421034	-3.08761	-0.175338	0.990205	-0.00259951	0.000230243	-0.0722819	-0.371743	0.0796422	0.0753603	0	0	0.0280487	0.00476934	0.106207	0.0941502	0.045437	0	0	-0.149793	-0.0767478	0.144454	-1.56693	-0.834469	-1.57779	0.871367	0.666563	0	0	1.32382	-1.43985	0.631442	0.0503787	1.53205	0	0
2.77741	0.0318022	-0.0420644	-3.0874	-0.175224	0.990242	-0.00261801	0.000222237	-0.0722822	-0.371921	0.0798639	0.0753644	0	0	0.0280527	0.00472104	0.106278	0.0942469	0.0454073	0	0	-0.150106	-0.0770207	0.144654	-1.56693	-0.834288	-1.57483	0.871567	0.665127	0	0	1.3247	-1.43934	0.630522	0.0503957	1.53192	0	0
2.7874	0.0316099	-0.0420461	-3.08722	-0.175113	0.990275	-0.00263139	0.000223983	-0.0723028	-0.37209	0.0800435	0.0753676	0	0	0.0280598	0.00469999	0.106353	0.0943067	0.0453564	0	0	-0.150382	-0.0772779	0.144874	-1.56694	-0.834045	-1.57233	0.871701	0.663346	0	0	1.32557	-1.43888	0.629697	0.0504125	1.53179	0	0
2.79739	0.0314647	-0.0420459	-3.08705	-0.175008	0.990304	-0.00263958	0.000249126	-0.072341	-0.372249	0.0801845	0.0753672	0	0	0.0280865	0.00470298	0.106434	0.0943362	0.0452852	0	0	-0.150606	-0.077516	0.145102	-1.56694	-0.833741	-1.57033	0.871786	0.661423	0	0	1.32644	-1.43846	0.629058	0.0504289	1.53166	0	0
2.80738	0.0313807	-0.0420671	-3.08689	-0.174907	0.990327	-0.00264059	0.000306553	-0.0724021	-0.372402	0.0802791	0.0753628	0	0	0.0281465	0.00473615	0.106523	0.0943387	0.0451925	0	0	-0.150765	-0.0777269	0.145334	-1.56695	-0.83336	-1.56903	0.871801	0.659511	0	0	1.32732	-1.43812	0.628736	0.0504449	1.53154	0	0
2.81737	0.0313578	-0.0421018	-3.08675	-0.174811	0.990345	-0.00263664	0.000406519	-0.0724772	-0.372547	0.080344	0.075354	0	0	0.0282496	0.00478826	0.106616	0.0943237	0.0450861	0	0	-0.150851	-0.0779167	0.145558	-1.56695	-0.832924	-1.56823	0.871788	0.657773	0	0	1.32819	-1.43785	0.62869	0.0504606	1.53141	0	0
2.82736	0.0313965	-0.0421491	-3.08663	-0.17472	0.990358	-0.00262819	0.000551736	-0.0725654	-0.372685	0.0803835	0.0753421	0	0	0.0283995	0.00485749	0.106711	0.0942972	0.0449707	0	0	-0.150861	-0.0780868	0.145774	-1.56696	-0.832438	-1.56787	0.871746	0.656273	0	0	1.32907	-1.43763	0.62891	0.050476	1.53128	0	0
